<svg width="720" height="720" viewBox="0 0 720 720" fill="none" xmlns="http://www.w3.org/2000/svg">
<rect width="720" height="720" rx="360" fill="url(#paint0_linear_408_2)"/>
<g filter="url(#filter0_d_408_2)">
<path d="M322.766 281.917C322.64 282.083 322.717 282.208 322.998 282.292C345.454 289.029 365.553 299.729 383.295 314.395C404.985 332.324 421.634 355.293 432.289 381.367C432.366 381.554 432.457 381.64 432.562 381.626C440.187 400.762 444.217 420.674 444.652 441.362C445.127 464.003 439.247 484.603 427.014 503.161C415.605 520.463 399.075 534.029 380.163 542.12C367.278 547.634 353.189 550.422 338.96 550.415C295.92 550.396 252.882 550.4 209.845 550.425C207.145 550.428 204.06 549.899 200.59 548.84L200.937 548.812C201.056 548.805 201.158 548.759 201.242 548.675L305.247 444.666C305.316 444.598 305.399 444.547 305.491 444.518C305.582 444.488 305.679 444.482 305.774 444.498C306.875 444.69 308.028 444.727 309.232 444.61C318.585 443.705 326.09 439.779 331.749 432.833C337.294 426.028 339.647 417.383 338.535 408.685C336.038 389.184 315.994 376.502 297.275 382.72C284.218 387.059 275.492 398.977 275.344 412.841C275.341 413.339 275.453 413.813 275.544 414.318C275.565 414.435 275.534 414.535 275.449 414.619L171.195 518.709C171.092 518.349 170.937 518.052 170.728 517.818C170.653 517.731 170.599 517.626 170.574 517.513C169.915 514.508 169.585 511.705 169.585 509.102C169.622 466.942 169.628 424.781 169.603 382.619C169.603 379.504 169.639 377.167 169.711 375.608C171.332 340.794 190.583 309.092 219.932 290.955C236.873 280.49 256.612 275.123 276.793 275.32C292.323 275.472 307.353 277.622 321.883 281.77C322.292 281.887 322.586 281.936 322.766 281.917Z" fill="#FA8127" fill-opacity="0.45"/>
<path d="M432.246 381.626C432.141 381.64 432.05 381.554 431.973 381.366C421.317 355.293 404.668 332.324 382.979 314.395C365.237 299.729 345.138 289.029 322.682 282.292C322.401 282.208 322.324 282.083 322.45 281.917C362.934 241.429 403.421 200.942 443.912 160.456C446.098 158.272 447.814 156.683 449.06 155.689C464.559 143.347 486.469 143.207 502.042 155.696C503.229 156.648 504.941 158.24 507.176 160.473C521.105 174.395 535.03 188.319 548.952 202.245C551.061 204.357 552.635 206.083 553.676 207.425C565.881 223.166 565.804 245.031 553.045 260.547C552.149 261.637 550.545 263.336 548.233 265.647C509.559 304.297 470.897 342.957 432.246 381.626Z" fill="url(#paint1_linear_408_2)"/>
<path d="M200.59 548.84C186.143 544.684 174.93 533.485 171.09 519.067C171.031 518.847 171.066 518.728 171.195 518.709L275.45 414.619C275.534 414.535 275.565 414.435 275.544 414.318C275.453 413.813 275.341 413.339 275.344 412.841C275.492 398.977 284.218 387.059 297.275 382.72C315.994 376.502 336.038 389.184 338.535 408.685C339.647 417.383 337.294 426.028 331.749 432.833C326.09 439.779 318.585 443.705 309.232 444.61C308.028 444.727 306.875 444.69 305.774 444.498C305.679 444.482 305.582 444.488 305.491 444.518C305.399 444.547 305.316 444.598 305.248 444.666L201.242 548.675C201.158 548.759 201.056 548.805 200.937 548.812L200.59 548.84Z" fill="url(#paint2_linear_408_2)"/>
</g>
<defs>
<filter id="filter0_d_408_2" x="150.585" y="128.381" width="437.139" height="448.045" filterUnits="userSpaceOnUse" color-interpolation-filters="sRGB">
<feFlood flood-opacity="0" result="BackgroundImageFix"/>
<feColorMatrix in="SourceAlpha" type="matrix" values="0 0 0 0 0 0 0 0 0 0 0 0 0 0 0 0 0 0 127 0" result="hardAlpha"/>
<feOffset dx="3" dy="4"/>
<feGaussianBlur stdDeviation="11"/>
<feComposite in2="hardAlpha" operator="out"/>
<feColorMatrix type="matrix" values="0 0 0 0 0 0 0 0 0 0 0 0 0 0 0 0 0 0 0.25 0"/>
<feBlend mode="normal" in2="BackgroundImageFix" result="effect1_dropShadow_408_2"/>
<feBlend mode="normal" in="SourceGraphic" in2="effect1_dropShadow_408_2" result="shape"/>
</filter>
<linearGradient id="paint0_linear_408_2" x1="0" y1="0" x2="720" y2="720" gradientUnits="userSpaceOnUse">
<stop stop-color="#00D2FF"/>
<stop offset="1" stop-color="#3A7BD5"/>
</linearGradient>
<linearGradient id="paint1_linear_408_2" x1="442.558" y1="146.381" x2="442.558" y2="381.627" gradientUnits="userSpaceOnUse">
<stop stop-color="#FC4A1A"/>
<stop offset="1" stop-color="#F7B733"/>
</linearGradient>
<linearGradient id="paint2_linear_408_2" x1="254.933" y1="381.127" x2="254.933" y2="548.84" gradientUnits="userSpaceOnUse">
<stop stop-color="#FC4A1A"/>
<stop offset="1" stop-color="#F7B733"/>
</linearGradient>
</defs>
</svg>
